<svg width="2560" height="1280" viewBox="0 0 256 128" fill="none" xmlns="http://www.w3.org/2000/svg">
<g clip-path="url(#clip0_2_18)">
<path d="M78 1.27742e-05L256 -3.62396e-05V21.7343L0 128L9.16107e-06 87.5L78 1.27742e-05Z" fill="#384B70"/>
<g filter="url(#filter0_d_2_18)">
<mask id="path-2-outside-1_2_18" maskUnits="userSpaceOnUse" x="12" y="26" width="229" height="75" fill="black">
<rect fill="white" x="12" y="26" width="229" height="75"/>
<path d="M24.088 99.14V93.632H29.632V82.544H35.14V77H18.544V71.456H13V54.86H18.544V49.316H24.088V43.772H35.14V49.316H29.632V54.86H24.088V71.456H35.14V60.368H40.684V54.86H35.14V49.316H40.684V43.772H57.316V49.316H51.772V60.368H46.228V82.544H40.684V93.632H46.228V99.14H24.088ZM64.9854 77V71.456H59.4414V60.368H64.9854V54.86H59.4414V49.316H64.9854V43.772H76.0734V60.368H70.5294V71.456H81.5814V77H64.9854ZM87.1254 77V71.456H81.5814V65.912H87.1254V60.368H92.6694V49.316H87.1254V43.772H103.757V60.368H98.2134V71.456H103.757V77H87.1254ZM145.252 71.456V65.912H150.796V71.456H145.252ZM112.024 77V71.456H106.48V54.86H112.024V49.316H117.568V43.772H139.708V49.316H145.252V60.368H139.708V71.456H145.252V77H128.62V71.456H123.112V65.912H128.62V60.368H134.164V49.316H123.112V54.86H117.568V71.456H123.112V77H112.024ZM153.52 77V65.912H159.064V54.86H153.52V49.316H159.064V43.772H170.152V49.316H175.66V54.86H170.152V65.912H164.608V77H153.52ZM181.204 54.86V49.316H175.66V43.772H186.748V49.316H192.292V54.86H181.204ZM222.723 60.368V54.86H228.267V49.316H217.179V43.772H233.811V49.316H239.355V54.86H233.811V60.368H222.723ZM195.039 77V60.368H200.583V38.228H206.127V32.684H200.583V27.14H217.179V38.228H211.671V49.316H217.179V54.86H211.671V60.368H222.723V65.912H228.267V71.456H239.355V77H222.723V71.456H217.179V65.912H206.127V77H195.039Z"/>
</mask>
<path d="M24.088 99.14V93.632H29.632V82.544H35.14V77H18.544V71.456H13V54.86H18.544V49.316H24.088V43.772H35.14V49.316H29.632V54.86H24.088V71.456H35.14V60.368H40.684V54.86H35.14V49.316H40.684V43.772H57.316V49.316H51.772V60.368H46.228V82.544H40.684V93.632H46.228V99.14H24.088ZM64.9854 77V71.456H59.4414V60.368H64.9854V54.86H59.4414V49.316H64.9854V43.772H76.0734V60.368H70.5294V71.456H81.5814V77H64.9854ZM87.1254 77V71.456H81.5814V65.912H87.1254V60.368H92.6694V49.316H87.1254V43.772H103.757V60.368H98.2134V71.456H103.757V77H87.1254ZM145.252 71.456V65.912H150.796V71.456H145.252ZM112.024 77V71.456H106.48V54.86H112.024V49.316H117.568V43.772H139.708V49.316H145.252V60.368H139.708V71.456H145.252V77H128.62V71.456H123.112V65.912H128.62V60.368H134.164V49.316H123.112V54.86H117.568V71.456H123.112V77H112.024ZM153.52 77V65.912H159.064V54.86H153.52V49.316H159.064V43.772H170.152V49.316H175.66V54.86H170.152V65.912H164.608V77H153.52ZM181.204 54.86V49.316H175.66V43.772H186.748V49.316H192.292V54.86H181.204ZM222.723 60.368V54.86H228.267V49.316H217.179V43.772H233.811V49.316H239.355V54.86H233.811V60.368H222.723ZM195.039 77V60.368H200.583V38.228H206.127V32.684H200.583V27.14H217.179V38.228H211.671V49.316H217.179V54.86H211.671V60.368H222.723V65.912H228.267V71.456H239.355V77H222.723V71.456H217.179V65.912H206.127V77H195.039Z" fill="#B8001F"/>
<path d="M24.088 99.14H23.088V100.14H24.088V99.14ZM24.088 93.632V92.632H23.088V93.632H24.088ZM29.632 93.632V94.632H30.632V93.632H29.632ZM29.632 82.544V81.544H28.632V82.544H29.632ZM35.14 82.544V83.544H36.14V82.544H35.14ZM35.14 77H36.14V76H35.14V77ZM18.544 77H17.544V78H18.544V77ZM18.544 71.456H19.544V70.456H18.544V71.456ZM13 71.456H12V72.456H13V71.456ZM13 54.86V53.86H12V54.86H13ZM18.544 54.86V55.86H19.544V54.86H18.544ZM18.544 49.316V48.316H17.544V49.316H18.544ZM24.088 49.316V50.316H25.088V49.316H24.088ZM24.088 43.772V42.772H23.088V43.772H24.088ZM35.14 43.772H36.14V42.772H35.14V43.772ZM35.14 49.316V50.316H36.14V49.316H35.14ZM29.632 49.316V48.316H28.632V49.316H29.632ZM29.632 54.86V55.86H30.632V54.86H29.632ZM24.088 54.86V53.86H23.088V54.86H24.088ZM24.088 71.456H23.088V72.456H24.088V71.456ZM35.14 71.456V72.456H36.14V71.456H35.14ZM35.14 60.368V59.368H34.14V60.368H35.14ZM40.684 60.368V61.368H41.684V60.368H40.684ZM40.684 54.86H41.684V53.86H40.684V54.86ZM35.14 54.86H34.14V55.86H35.14V54.86ZM35.14 49.316V48.316H34.14V49.316H35.14ZM40.684 49.316V50.316H41.684V49.316H40.684ZM40.684 43.772V42.772H39.684V43.772H40.684ZM57.316 43.772H58.316V42.772H57.316V43.772ZM57.316 49.316V50.316H58.316V49.316H57.316ZM51.772 49.316V48.316H50.772V49.316H51.772ZM51.772 60.368V61.368H52.772V60.368H51.772ZM46.228 60.368V59.368H45.228V60.368H46.228ZM46.228 82.544V83.544H47.228V82.544H46.228ZM40.684 82.544V81.544H39.684V82.544H40.684ZM40.684 93.632H39.684V94.632H40.684V93.632ZM46.228 93.632H47.228V92.632H46.228V93.632ZM46.228 99.14V100.14H47.228V99.14H46.228ZM24.088 99.14H25.088V93.632H24.088H23.088V99.14H24.088ZM24.088 93.632V94.632H29.632V93.632V92.632H24.088V93.632ZM29.632 93.632H30.632V82.544H29.632H28.632V93.632H29.632ZM29.632 82.544V83.544H35.14V82.544V81.544H29.632V82.544ZM35.14 82.544H36.14V77H35.14H34.14V82.544H35.14ZM35.14 77V76H18.544V77V78H35.14V77ZM18.544 77H19.544V71.456H18.544H17.544V77H18.544ZM18.544 71.456V70.456H13V71.456V72.456H18.544V71.456ZM13 71.456H14V54.86H13H12V71.456H13ZM13 54.86V55.86H18.544V54.86V53.86H13V54.86ZM18.544 54.86H19.544V49.316H18.544H17.544V54.86H18.544ZM18.544 49.316V50.316H24.088V49.316V48.316H18.544V49.316ZM24.088 49.316H25.088V43.772H24.088H23.088V49.316H24.088ZM24.088 43.772V44.772H35.14V43.772V42.772H24.088V43.772ZM35.14 43.772H34.14V49.316H35.14H36.14V43.772H35.14ZM35.14 49.316V48.316H29.632V49.316V50.316H35.14V49.316ZM29.632 49.316H28.632V54.86H29.632H30.632V49.316H29.632ZM29.632 54.86V53.86H24.088V54.86V55.86H29.632V54.86ZM24.088 54.86H23.088V71.456H24.088H25.088V54.86H24.088ZM24.088 71.456V72.456H35.14V71.456V70.456H24.088V71.456ZM35.14 71.456H36.14V60.368H35.14H34.14V71.456H35.14ZM35.14 60.368V61.368H40.684V60.368V59.368H35.14V60.368ZM40.684 60.368H41.684V54.86H40.684H39.684V60.368H40.684ZM40.684 54.86V53.86H35.14V54.86V55.86H40.684V54.86ZM35.14 54.86H36.14V49.316H35.14H34.14V54.86H35.14ZM35.14 49.316V50.316H40.684V49.316V48.316H35.14V49.316ZM40.684 49.316H41.684V43.772H40.684H39.684V49.316H40.684ZM40.684 43.772V44.772H57.316V43.772V42.772H40.684V43.772ZM57.316 43.772H56.316V49.316H57.316H58.316V43.772H57.316ZM57.316 49.316V48.316H51.772V49.316V50.316H57.316V49.316ZM51.772 49.316H50.772V60.368H51.772H52.772V49.316H51.772ZM51.772 60.368V59.368H46.228V60.368V61.368H51.772V60.368ZM46.228 60.368H45.228V82.544H46.228H47.228V60.368H46.228ZM46.228 82.544V81.544H40.684V82.544V83.544H46.228V82.544ZM40.684 82.544H39.684V93.632H40.684H41.684V82.544H40.684ZM40.684 93.632V94.632H46.228V93.632V92.632H40.684V93.632ZM46.228 93.632H45.228V99.14H46.228H47.228V93.632H46.228ZM46.228 99.14V98.14H24.088V99.14V100.14H46.228V99.14ZM64.9854 77H63.9854V78H64.9854V77ZM64.9854 71.456H65.9854V70.456H64.9854V71.456ZM59.4414 71.456H58.4414V72.456H59.4414V71.456ZM59.4414 60.368V59.368H58.4414V60.368H59.4414ZM64.9854 60.368V61.368H65.9854V60.368H64.9854ZM64.9854 54.86H65.9854V53.86H64.9854V54.86ZM59.4414 54.86H58.4414V55.86H59.4414V54.86ZM59.4414 49.316V48.316H58.4414V49.316H59.4414ZM64.9854 49.316V50.316H65.9854V49.316H64.9854ZM64.9854 43.772V42.772H63.9854V43.772H64.9854ZM76.0734 43.772H77.0734V42.772H76.0734V43.772ZM76.0734 60.368V61.368H77.0734V60.368H76.0734ZM70.5294 60.368V59.368H69.5294V60.368H70.5294ZM70.5294 71.456H69.5294V72.456H70.5294V71.456ZM81.5814 71.456H82.5814V70.456H81.5814V71.456ZM81.5814 77V78H82.5814V77H81.5814ZM87.1254 77H86.1254V78H87.1254V77ZM87.1254 71.456H88.1254V70.456H87.1254V71.456ZM81.5814 71.456H80.5814V72.456H81.5814V71.456ZM81.5814 65.912V64.912H80.5814V65.912H81.5814ZM87.1254 65.912V66.912H88.1254V65.912H87.1254ZM87.1254 60.368V59.368H86.1254V60.368H87.1254ZM92.6694 60.368V61.368H93.6694V60.368H92.6694ZM92.6694 49.316H93.6694V48.316H92.6694V49.316ZM87.1254 49.316H86.1254V50.316H87.1254V49.316ZM87.1254 43.772V42.772H86.1254V43.772H87.1254ZM103.757 43.772H104.757V42.772H103.757V43.772ZM103.757 60.368V61.368H104.757V60.368H103.757ZM98.2134 60.368V59.368H97.2134V60.368H98.2134ZM98.2134 71.456H97.2134V72.456H98.2134V71.456ZM103.757 71.456H104.757V70.456H103.757V71.456ZM103.757 77V78H104.757V77H103.757ZM64.9854 77H65.9854V71.456H64.9854H63.9854V77H64.9854ZM64.9854 71.456V70.456H59.4414V71.456V72.456H64.9854V71.456ZM59.4414 71.456H60.4414V60.368H59.4414H58.4414V71.456H59.4414ZM59.4414 60.368V61.368H64.9854V60.368V59.368H59.4414V60.368ZM64.9854 60.368H65.9854V54.86H64.9854H63.9854V60.368H64.9854ZM64.9854 54.86V53.86H59.4414V54.86V55.86H64.9854V54.86ZM59.4414 54.86H60.4414V49.316H59.4414H58.4414V54.86H59.4414ZM59.4414 49.316V50.316H64.9854V49.316V48.316H59.4414V49.316ZM64.9854 49.316H65.9854V43.772H64.9854H63.9854V49.316H64.9854ZM64.9854 43.772V44.772H76.0734V43.772V42.772H64.9854V43.772ZM76.0734 43.772H75.0734V60.368H76.0734H77.0734V43.772H76.0734ZM76.0734 60.368V59.368H70.5294V60.368V61.368H76.0734V60.368ZM70.5294 60.368H69.5294V71.456H70.5294H71.5294V60.368H70.5294ZM70.5294 71.456V72.456H81.5814V71.456V70.456H70.5294V71.456ZM81.5814 71.456H80.5814V77H81.5814H82.5814V71.456H81.5814ZM81.5814 77V76H64.9854V77V78H81.5814V77ZM87.1254 77H88.1254V71.456H87.1254H86.1254V77H87.1254ZM87.1254 71.456V70.456H81.5814V71.456V72.456H87.1254V71.456ZM81.5814 71.456H82.5814V65.912H81.5814H80.5814V71.456H81.5814ZM81.5814 65.912V66.912H87.1254V65.912V64.912H81.5814V65.912ZM87.1254 65.912H88.1254V60.368H87.1254H86.1254V65.912H87.1254ZM87.1254 60.368V61.368H92.6694V60.368V59.368H87.1254V60.368ZM92.6694 60.368H93.6694V49.316H92.6694H91.6694V60.368H92.6694ZM92.6694 49.316V48.316H87.1254V49.316V50.316H92.6694V49.316ZM87.1254 49.316H88.1254V43.772H87.1254H86.1254V49.316H87.1254ZM87.1254 43.772V44.772H103.757V43.772V42.772H87.1254V43.772ZM103.757 43.772H102.757V60.368H103.757H104.757V43.772H103.757ZM103.757 60.368V59.368H98.2134V60.368V61.368H103.757V60.368ZM98.2134 60.368H97.2134V71.456H98.2134H99.2134V60.368H98.2134ZM98.2134 71.456V72.456H103.757V71.456V70.456H98.2134V71.456ZM103.757 71.456H102.757V77H103.757H104.757V71.456H103.757ZM103.757 77V76H87.1254V77V78H103.757V77ZM145.252 71.456H144.252V72.456H145.252V71.456ZM145.252 65.912V64.912H144.252V65.912H145.252ZM150.796 65.912H151.796V64.912H150.796V65.912ZM150.796 71.456V72.456H151.796V71.456H150.796ZM112.024 77H111.024V78H112.024V77ZM112.024 71.456H113.024V70.456H112.024V71.456ZM106.48 71.456H105.48V72.456H106.48V71.456ZM106.48 54.86V53.86H105.48V54.86H106.48ZM112.024 54.86V55.86H113.024V54.86H112.024ZM112.024 49.316V48.316H111.024V49.316H112.024ZM117.568 49.316V50.316H118.568V49.316H117.568ZM117.568 43.772V42.772H116.568V43.772H117.568ZM139.708 43.772H140.708V42.772H139.708V43.772ZM139.708 49.316H138.708V50.316H139.708V49.316ZM145.252 49.316H146.252V48.316H145.252V49.316ZM145.252 60.368V61.368H146.252V60.368H145.252ZM139.708 60.368V59.368H138.708V60.368H139.708ZM139.708 71.456H138.708V72.456H139.708V71.456ZM145.252 71.456H146.252V70.456H145.252V71.456ZM145.252 77V78H146.252V77H145.252ZM128.62 77H127.62V78H128.62V77ZM128.62 71.456H129.62V70.456H128.62V71.456ZM123.112 71.456H122.112V72.456H123.112V71.456ZM123.112 65.912V64.912H122.112V65.912H123.112ZM128.62 65.912V66.912H129.62V65.912H128.62ZM128.62 60.368V59.368H127.62V60.368H128.62ZM134.164 60.368V61.368H135.164V60.368H134.164ZM134.164 49.316H135.164V48.316H134.164V49.316ZM123.112 49.316V48.316H122.112V49.316H123.112ZM123.112 54.86V55.86H124.112V54.86H123.112ZM117.568 54.86V53.86H116.568V54.86H117.568ZM117.568 71.456H116.568V72.456H117.568V71.456ZM123.112 71.456H124.112V70.456H123.112V71.456ZM123.112 77V78H124.112V77H123.112ZM145.252 71.456H146.252V65.912H145.252H144.252V71.456H145.252ZM145.252 65.912V66.912H150.796V65.912V64.912H145.252V65.912ZM150.796 65.912H149.796V71.456H150.796H151.796V65.912H150.796ZM150.796 71.456V70.456H145.252V71.456V72.456H150.796V71.456ZM112.024 77H113.024V71.456H112.024H111.024V77H112.024ZM112.024 71.456V70.456H106.48V71.456V72.456H112.024V71.456ZM106.48 71.456H107.48V54.86H106.48H105.48V71.456H106.48ZM106.48 54.86V55.86H112.024V54.86V53.86H106.48V54.86ZM112.024 54.86H113.024V49.316H112.024H111.024V54.86H112.024ZM112.024 49.316V50.316H117.568V49.316V48.316H112.024V49.316ZM117.568 49.316H118.568V43.772H117.568H116.568V49.316H117.568ZM117.568 43.772V44.772H139.708V43.772V42.772H117.568V43.772ZM139.708 43.772H138.708V49.316H139.708H140.708V43.772H139.708ZM139.708 49.316V50.316H145.252V49.316V48.316H139.708V49.316ZM145.252 49.316H144.252V60.368H145.252H146.252V49.316H145.252ZM145.252 60.368V59.368H139.708V60.368V61.368H145.252V60.368ZM139.708 60.368H138.708V71.456H139.708H140.708V60.368H139.708ZM139.708 71.456V72.456H145.252V71.456V70.456H139.708V71.456ZM145.252 71.456H144.252V77H145.252H146.252V71.456H145.252ZM145.252 77V76H128.62V77V78H145.252V77ZM128.62 77H129.62V71.456H128.62H127.62V77H128.62ZM128.62 71.456V70.456H123.112V71.456V72.456H128.62V71.456ZM123.112 71.456H124.112V65.912H123.112H122.112V71.456H123.112ZM123.112 65.912V66.912H128.62V65.912V64.912H123.112V65.912ZM128.62 65.912H129.62V60.368H128.62H127.62V65.912H128.62ZM128.62 60.368V61.368H134.164V60.368V59.368H128.62V60.368ZM134.164 60.368H135.164V49.316H134.164H133.164V60.368H134.164ZM134.164 49.316V48.316H123.112V49.316V50.316H134.164V49.316ZM123.112 49.316H122.112V54.86H123.112H124.112V49.316H123.112ZM123.112 54.86V53.86H117.568V54.86V55.86H123.112V54.86ZM117.568 54.86H116.568V71.456H117.568H118.568V54.86H117.568ZM117.568 71.456V72.456H123.112V71.456V70.456H117.568V71.456ZM123.112 71.456H122.112V77H123.112H124.112V71.456H123.112ZM123.112 77V76H112.024V77V78H123.112V77ZM153.52 77H152.52V78H153.52V77ZM153.52 65.912V64.912H152.52V65.912H153.52ZM159.064 65.912V66.912H160.064V65.912H159.064ZM159.064 54.86H160.064V53.86H159.064V54.86ZM153.52 54.86H152.52V55.86H153.52V54.86ZM153.52 49.316V48.316H152.52V49.316H153.52ZM159.064 49.316V50.316H160.064V49.316H159.064ZM159.064 43.772V42.772H158.064V43.772H159.064ZM170.152 43.772H171.152V42.772H170.152V43.772ZM170.152 49.316H169.152V50.316H170.152V49.316ZM175.66 49.316H176.66V48.316H175.66V49.316ZM175.66 54.86V55.86H176.66V54.86H175.66ZM170.152 54.86V53.86H169.152V54.86H170.152ZM170.152 65.912V66.912H171.152V65.912H170.152ZM164.608 65.912V64.912H163.608V65.912H164.608ZM164.608 77V78H165.608V77H164.608ZM181.204 54.86H180.204V55.86H181.204V54.86ZM181.204 49.316H182.204V48.316H181.204V49.316ZM175.66 49.316H174.66V50.316H175.66V49.316ZM175.66 43.772V42.772H174.66V43.772H175.66ZM186.748 43.772H187.748V42.772H186.748V43.772ZM186.748 49.316H185.748V50.316H186.748V49.316ZM192.292 49.316H193.292V48.316H192.292V49.316ZM192.292 54.86V55.86H193.292V54.86H192.292ZM153.52 77H154.52V65.912H153.52H152.52V77H153.52ZM153.52 65.912V66.912H159.064V65.912V64.912H153.52V65.912ZM159.064 65.912H160.064V54.86H159.064H158.064V65.912H159.064ZM159.064 54.86V53.86H153.52V54.86V55.86H159.064V54.86ZM153.52 54.86H154.52V49.316H153.52H152.52V54.86H153.52ZM153.52 49.316V50.316H159.064V49.316V48.316H153.52V49.316ZM159.064 49.316H160.064V43.772H159.064H158.064V49.316H159.064ZM159.064 43.772V44.772H170.152V43.772V42.772H159.064V43.772ZM170.152 43.772H169.152V49.316H170.152H171.152V43.772H170.152ZM170.152 49.316V50.316H175.66V49.316V48.316H170.152V49.316ZM175.66 49.316H174.66V54.86H175.66H176.66V49.316H175.66ZM175.66 54.86V53.86H170.152V54.86V55.86H175.66V54.86ZM170.152 54.86H169.152V65.912H170.152H171.152V54.86H170.152ZM170.152 65.912V64.912H164.608V65.912V66.912H170.152V65.912ZM164.608 65.912H163.608V77H164.608H165.608V65.912H164.608ZM164.608 77V76H153.52V77V78H164.608V77ZM181.204 54.86H182.204V49.316H181.204H180.204V54.86H181.204ZM181.204 49.316V48.316H175.66V49.316V50.316H181.204V49.316ZM175.66 49.316H176.66V43.772H175.66H174.66V49.316H175.66ZM175.66 43.772V44.772H186.748V43.772V42.772H175.66V43.772ZM186.748 43.772H185.748V49.316H186.748H187.748V43.772H186.748ZM186.748 49.316V50.316H192.292V49.316V48.316H186.748V49.316ZM192.292 49.316H191.292V54.86H192.292H193.292V49.316H192.292ZM192.292 54.86V53.86H181.204V54.86V55.86H192.292V54.86ZM222.723 60.368H221.723V61.368H222.723V60.368ZM222.723 54.86V53.86H221.723V54.86H222.723ZM228.267 54.86V55.86H229.267V54.86H228.267ZM228.267 49.316H229.267V48.316H228.267V49.316ZM217.179 49.316H216.179V50.316H217.179V49.316ZM217.179 43.772V42.772H216.179V43.772H217.179ZM233.811 43.772H234.811V42.772H233.811V43.772ZM233.811 49.316H232.811V50.316H233.811V49.316ZM239.355 49.316H240.355V48.316H239.355V49.316ZM239.355 54.86V55.86H240.355V54.86H239.355ZM233.811 54.86V53.86H232.811V54.86H233.811ZM233.811 60.368V61.368H234.811V60.368H233.811ZM195.039 77H194.039V78H195.039V77ZM195.039 60.368V59.368H194.039V60.368H195.039ZM200.583 60.368V61.368H201.583V60.368H200.583ZM200.583 38.228V37.228H199.583V38.228H200.583ZM206.127 38.228V39.228H207.127V38.228H206.127ZM206.127 32.684H207.127V31.684H206.127V32.684ZM200.583 32.684H199.583V33.684H200.583V32.684ZM200.583 27.14V26.14H199.583V27.14H200.583ZM217.179 27.14H218.179V26.14H217.179V27.14ZM217.179 38.228V39.228H218.179V38.228H217.179ZM211.671 38.228V37.228H210.671V38.228H211.671ZM211.671 49.316H210.671V50.316H211.671V49.316ZM217.179 49.316H218.179V48.316H217.179V49.316ZM217.179 54.86V55.86H218.179V54.86H217.179ZM211.671 54.86V53.86H210.671V54.86H211.671ZM211.671 60.368H210.671V61.368H211.671V60.368ZM222.723 60.368H223.723V59.368H222.723V60.368ZM222.723 65.912H221.723V66.912H222.723V65.912ZM228.267 65.912H229.267V64.912H228.267V65.912ZM228.267 71.456H227.267V72.456H228.267V71.456ZM239.355 71.456H240.355V70.456H239.355V71.456ZM239.355 77V78H240.355V77H239.355ZM222.723 77H221.723V78H222.723V77ZM222.723 71.456H223.723V70.456H222.723V71.456ZM217.179 71.456H216.179V72.456H217.179V71.456ZM217.179 65.912H218.179V64.912H217.179V65.912ZM206.127 65.912V64.912H205.127V65.912H206.127ZM206.127 77V78H207.127V77H206.127ZM222.723 60.368H223.723V54.86H222.723H221.723V60.368H222.723ZM222.723 54.86V55.86H228.267V54.86V53.86H222.723V54.86ZM228.267 54.86H229.267V49.316H228.267H227.267V54.86H228.267ZM228.267 49.316V48.316H217.179V49.316V50.316H228.267V49.316ZM217.179 49.316H218.179V43.772H217.179H216.179V49.316H217.179ZM217.179 43.772V44.772H233.811V43.772V42.772H217.179V43.772ZM233.811 43.772H232.811V49.316H233.811H234.811V43.772H233.811ZM233.811 49.316V50.316H239.355V49.316V48.316H233.811V49.316ZM239.355 49.316H238.355V54.86H239.355H240.355V49.316H239.355ZM239.355 54.86V53.86H233.811V54.86V55.86H239.355V54.86ZM233.811 54.86H232.811V60.368H233.811H234.811V54.86H233.811ZM233.811 60.368V59.368H222.723V60.368V61.368H233.811V60.368ZM195.039 77H196.039V60.368H195.039H194.039V77H195.039ZM195.039 60.368V61.368H200.583V60.368V59.368H195.039V60.368ZM200.583 60.368H201.583V38.228H200.583H199.583V60.368H200.583ZM200.583 38.228V39.228H206.127V38.228V37.228H200.583V38.228ZM206.127 38.228H207.127V32.684H206.127H205.127V38.228H206.127ZM206.127 32.684V31.684H200.583V32.684V33.684H206.127V32.684ZM200.583 32.684H201.583V27.14H200.583H199.583V32.684H200.583ZM200.583 27.14V28.14H217.179V27.14V26.14H200.583V27.14ZM217.179 27.14H216.179V38.228H217.179H218.179V27.14H217.179ZM217.179 38.228V37.228H211.671V38.228V39.228H217.179V38.228ZM211.671 38.228H210.671V49.316H211.671H212.671V38.228H211.671ZM211.671 49.316V50.316H217.179V49.316V48.316H211.671V49.316ZM217.179 49.316H216.179V54.86H217.179H218.179V49.316H217.179ZM217.179 54.86V53.86H211.671V54.86V55.86H217.179V54.86ZM211.671 54.86H210.671V60.368H211.671H212.671V54.86H211.671ZM211.671 60.368V61.368H222.723V60.368V59.368H211.671V60.368ZM222.723 60.368H221.723V65.912H222.723H223.723V60.368H222.723ZM222.723 65.912V66.912H228.267V65.912V64.912H222.723V65.912ZM228.267 65.912H227.267V71.456H228.267H229.267V65.912H228.267ZM228.267 71.456V72.456H239.355V71.456V70.456H228.267V71.456ZM239.355 71.456H238.355V77H239.355H240.355V71.456H239.355ZM239.355 77V76H222.723V77V78H239.355V77ZM222.723 77H223.723V71.456H222.723H221.723V77H222.723ZM222.723 71.456V70.456H217.179V71.456V72.456H222.723V71.456ZM217.179 71.456H218.179V65.912H217.179H216.179V71.456H217.179ZM217.179 65.912V64.912H206.127V65.912V66.912H217.179V65.912ZM206.127 65.912H205.127V77H206.127H207.127V65.912H206.127ZM206.127 77V76H195.039V77V78H206.127V77Z" fill="#FCFAEE" mask="url(#path-2-outside-1_2_18)"/>
</g>
</g>
<defs>
<filter id="filter0_d_2_18" x="12" y="26.14" width="236.355" height="78" filterUnits="userSpaceOnUse" color-interpolation-filters="sRGB">
<feFlood flood-opacity="0" result="BackgroundImageFix"/>
<feColorMatrix in="SourceAlpha" type="matrix" values="0 0 0 0 0 0 0 0 0 0 0 0 0 0 0 0 0 0 127 0" result="hardAlpha"/>
<feOffset dx="8" dy="4"/>
<feComposite in2="hardAlpha" operator="out"/>
<feColorMatrix type="matrix" values="0 0 0 0 0.0982175 0 0 0 0 0.189111 0 0 0 0 0.229774 0 0 0 0.54 0"/>
<feBlend mode="normal" in2="BackgroundImageFix" result="effect1_dropShadow_2_18"/>
<feBlend mode="normal" in="SourceGraphic" in2="effect1_dropShadow_2_18" result="shape"/>
</filter>
<clipPath id="clip0_2_18">
<rect width="256" height="128" fill="white"/>
</clipPath>
</defs>
</svg>
